<svg width="100" height="96" viewBox="0 0 100 96" fill="none" xmlns="http://www.w3.org/2000/svg">
<path d="M100 46.3124C100 69.2784 83.0603 88.3621 61.0196 91.727C61.2055 90.7077 61.2576 89.6521 61.1325 88.5825C61.1325 88.5825 61.0008 87.457 60.8286 85.984C68.6539 84.6508 75.7189 81.0601 81.3187 75.8963C80.9826 75.6167 80.6478 75.2541 80.3178 74.7727C78.8305 72.6026 80.7753 70.4494 80.7753 68.5517C80.7753 66.6902 77.0225 66.8433 76.8851 65.6105C76.4109 61.3409 79.5052 61.2827 81.1549 59.633C82.8045 57.9833 79.5243 54.2329 77.4055 54.4749C75.2723 54.7026 69.2679 53.4897 69.8166 48.8958C70.4851 43.3005 62.688 43.7941 61.5715 41.1825C59.9439 37.3758 62.6496 32.7066 66.1787 31.6458C71.1774 30.1433 76.1018 26.0654 75.7171 21.5258C75.2813 16.3845 72.9542 11.7477 69.1214 8.99332C65.1328 7.37747 60.832 6.37829 56.3323 6.12616C52.3165 6.28499 48.7857 7.17747 48.9469 9.01603C49.3418 13.5216 62.154 14.6919 60.004 18.9036C58.8831 21.0992 50.4707 24.1981 52.0418 27.4657C53.0637 29.5907 55.5786 27.7695 54.6397 31.849C54.2076 33.7262 52.5617 37.2531 50.0305 37.4807C47.4421 37.7224 45.2867 30.8652 38.2413 30.6404C34.9106 30.5338 30.2183 35.8371 34.2026 39.5995C36.6153 41.878 41.1429 36.8611 42.4792 40.7801C43.4209 43.5417 42.3524 49.343 46.7473 51.7675C48.3495 52.6513 50.8055 53.4217 53.2346 54.6561C49.6292 55.3923 45.1991 56.7662 39.9679 58.7812L35.5604 57.6183C37.4055 56.0824 40.4034 55.0012 39.6491 51.645C38.5411 46.7141 29.9795 48.5737 24.0771 42.6714C22.2663 40.861 18.404 34.849 18.4199 27.6262C15.4777 33.2147 13.8032 39.5703 13.8032 46.3126C13.8032 48.3879 13.9616 50.4271 14.266 52.4188C14.1965 52.4177 14.1279 52.4056 14.0586 52.4056C12.1998 52.4056 10.3768 52.7961 8.68721 53.5345C8.31401 51.1807 8.11483 48.77 8.11483 46.3128C8.11483 20.9802 28.7248 0.369629 54.0571 0.369629C79.39 0.369302 100 20.9799 100 46.3124ZM65.5374 59.7033L54.3168 64.861L54.4908 62.416L61.7598 59.1347C60.723 59.0605 59.6488 59.0322 58.5763 59.0322C54.5601 59.0322 47.7746 61.0652 40.2697 64.0441L16.2 57.6953C13.9506 57.1018 11.5558 57.4673 9.58574 58.7051L8.40225 59.4485C7.24686 60.1744 7.2346 61.8541 8.37921 62.5969L22.848 71.9838C19.3916 73.7515 16.1124 75.5467 13.2215 77.2613L5.79702 73.3306C4.58427 72.6886 3.15045 72.6124 1.87676 73.1226L1.17398 73.4043C0.12594 73.8237 -0.313112 75.0701 0.240809 76.0539L4.33084 83.3206L4.33264 83.32C2.7895 84.6476 1.91009 85.7485 1.91009 86.5105C1.91009 88.7909 4.7163 89.3608 7.18983 89.3608C11.6016 89.3608 69.8642 76.0208 69.8642 63.9351C69.8639 61.5417 68.2269 60.3446 65.5374 59.7033ZM40.9723 83.2995L53.7931 78.7832C54.3578 78.5842 54.9612 78.9606 55.0308 79.5554L56.1549 89.1657C56.4357 91.5672 55.1441 93.8781 52.9516 94.8974L51.7491 95.4562C50.9982 95.8052 50.1073 95.6181 49.5601 94.9967L40.5817 84.7974C40.1446 84.3007 40.3482 83.5195 40.9723 83.2995Z" fill="#F25C3A"/>
</svg>
