<svg width="98" height="100" viewBox="0 0 98 100" fill="none" xmlns="http://www.w3.org/2000/svg">
<path d="M38.5114 0C37.7414 0 37.0521 0.166437 36.4469 0.502673C33.8293 1.02048 32.1515 2.68148 30.9124 3.90706C30.0886 4.72244 29.3775 5.42685 28.7622 5.42685H28.7605C27.9704 5.37642 27.2458 5.34616 26.5783 5.34616C22.019 5.34616 19.6367 6.93487 17.4781 11.4186C17.4075 11.5632 17.3302 11.6556 17.2579 11.7683H18.5625C24.1255 11.7683 28.6496 16.2923 28.6496 21.8554C28.6496 22.785 27.8964 23.5365 26.9684 23.5365C26.0404 23.5365 25.2872 22.785 25.2872 21.8554C25.2872 18.1467 22.2712 15.1306 18.5625 15.1306H10.6256C6.54203 18.1534 4.0253 23.5887 4.3565 29.0626C4.51789 31.7323 3.79162 36.1151 2.49039 38.1376C-0.715627 43.1273 -0.715627 50.0975 2.49039 55.0873C2.98633 55.8572 3.7126 56.7533 4.55319 57.7923C6.05281 59.6449 8.56449 62.7434 8.47875 64.1623C8.09712 70.4432 11.9302 77.6806 17.0225 80.2949C17.9388 80.7656 18.0934 81.2414 18.4397 82.6822C18.4784 82.8385 18.5204 83.0083 18.5625 83.1798V81.0766C18.5625 74.589 23.8414 69.3084 30.3307 69.3084C31.2588 69.3084 32.0119 70.0599 32.0119 70.9895C32.0119 71.9192 31.2588 72.6707 30.3307 72.6707C25.6957 72.6707 21.9248 76.4416 21.9248 81.0766V88.5713C22.8226 89.1917 23.7422 89.5447 24.5206 89.8406C26.0942 90.4374 26.7448 90.6863 26.9835 92.4112C27.6392 97.1622 30.4535 100 34.5118 100C40.4868 100 47.1426 93.6082 47.1426 84.439V22.2353C47.1426 23.165 46.3894 23.9165 45.4614 23.9165C39.8983 23.9165 35.3743 28.4405 35.3743 34.0036C35.3743 41.4193 29.3405 47.453 21.9248 47.453C20.9968 47.453 20.2437 46.7015 20.2437 45.7718C20.2437 44.8421 20.9968 44.0907 21.9248 44.0907C27.4879 44.0907 32.0119 39.5666 32.0119 34.0036C32.0119 26.5879 38.0457 20.5541 45.4614 20.5541C46.3894 20.5541 47.1426 21.3056 47.1426 22.2353V7.10467C47.1442 3.74399 41.9981 0 38.5114 0ZM33.6948 55.4521C33.6948 52.2007 34.9624 49.1426 37.2639 46.8427C37.9213 46.1854 38.9838 46.1854 39.6411 46.8427C40.2985 47.5001 40.2985 48.5626 39.6411 49.2199C37.9751 50.886 37.0571 53.1001 37.0571 55.4521C37.0571 57.804 37.9751 60.0182 39.6411 61.6842C40.2985 62.3416 40.2985 63.4041 39.6411 64.0614C37.9751 65.7274 37.0571 67.9416 37.0571 70.2935C37.0571 72.6455 37.9751 74.8596 39.6411 76.5257C40.2985 77.183 40.2985 78.2455 39.6411 78.9029C39.3133 79.2307 38.8829 79.3955 38.4525 79.3955C38.0221 79.3955 37.5918 79.2307 37.2639 78.9029C34.9624 76.603 33.6948 73.5433 33.6948 70.2935C33.6948 67.5734 34.5942 64.9945 36.2334 62.8728C34.5925 60.7545 33.6948 58.1739 33.6948 55.4521ZM21.6659 59.65C21.6659 59.6517 21.6659 59.6517 21.6659 59.65C21.012 61.427 21.9248 63.4057 23.7002 64.0597C24.571 64.3825 25.0165 65.3492 24.6937 66.22C24.4432 66.8976 23.801 67.3178 23.1168 67.3178C22.9235 67.3178 22.7268 67.2842 22.5334 67.2136C19.0198 65.9141 17.2158 62.0003 18.5104 58.4866C18.5104 58.4849 18.5104 58.4832 18.5104 58.4832C19.166 56.7079 18.2531 54.7292 16.4761 54.0735C15.6053 53.7524 15.1598 52.784 15.4826 51.9132C15.8037 51.0423 16.7754 50.6002 17.6429 50.9179C21.1599 52.2208 22.9638 56.1363 21.6659 59.65ZM24.729 33.8876C23.717 36.6296 21.1111 38.3309 18.3456 38.3309C17.5655 38.3309 16.7737 38.1947 16.0004 37.9106C14.22 37.2499 12.2463 38.1662 11.5889 39.9432C11.3384 40.6207 10.6962 41.041 10.012 41.041C9.81865 41.041 9.62195 41.0074 9.4303 40.9368C8.55945 40.6157 8.11394 39.6473 8.43504 38.7764C9.73123 35.2628 13.6501 33.4639 17.1637 34.7534C18.9374 35.4107 20.9178 34.4995 21.5751 32.7208C21.8963 31.85 22.8663 31.4061 23.7355 31.7256C24.6063 32.0484 25.0518 33.0167 24.729 33.8876Z" fill="#F25C3A"/>
<path d="M95.5095 37.7576C94.21 35.7369 93.482 31.3507 93.6451 28.6826C93.9763 23.207 91.4596 17.7734 87.376 14.7507H79.4374C76.6568 14.7507 74.3939 17.0136 74.3939 19.7942C74.3939 20.7239 73.6407 21.4754 72.7127 21.4754C71.7847 21.4754 71.0315 20.7239 71.0315 19.7942C71.0315 15.1592 74.8024 11.3883 79.4374 11.3883H80.742C80.6697 11.2757 80.5924 11.1832 80.5235 11.0403C78.3665 6.55661 75.9843 4.96789 71.4249 4.96789C70.7575 4.96789 70.0329 4.99815 69.2058 5.05027C68.7334 5.05027 67.9987 4.26179 67.2859 3.5019C66.0401 2.1704 64.3757 0.388353 61.738 0.0857402L60.889 0C55.452 0 50.8574 3.07992 50.8574 6.72472V84.0591C50.8574 93.2282 57.5132 99.6184 63.4881 99.6201C63.4881 99.6201 63.4881 99.6201 63.4898 99.6201C67.5464 99.6201 70.3591 96.7822 71.0164 92.0312C71.2551 90.3063 71.9057 90.0575 73.4793 89.4607C74.2577 89.1648 75.1773 88.8117 76.0751 88.1914V80.6967C76.0751 76.0617 72.3042 72.2908 67.6692 72.2908C66.7412 72.2908 65.988 71.5393 65.988 70.6096C65.988 69.6799 66.7412 68.9284 67.6692 68.9284C74.1585 68.9284 79.4374 74.209 79.4374 80.6967V82.8015C79.4811 82.63 79.5232 82.4603 79.5618 82.3022C79.9098 80.8631 80.0628 80.384 80.9791 79.9149C86.0697 77.3007 89.9028 70.0666 89.5228 63.7823C89.5077 63.5201 89.6035 63.1855 89.7431 62.8257L84.7248 57.0038C82.8805 53.9441 79.6476 52.1166 76.0751 52.1166C68.6594 52.1166 62.6256 46.0829 62.6256 38.6672C62.6256 37.7375 63.3788 36.986 64.3068 36.986C65.2348 36.986 65.988 37.7375 65.988 38.6672C65.988 44.2302 70.512 48.7542 76.0751 48.7542C80.7874 48.7542 85.0576 51.1398 87.5273 55.1444L91.5604 59.8181C92.206 58.9439 92.8953 58.0932 93.4467 57.4106C94.2873 56.3734 95.0136 55.4773 95.5095 54.7073C98.7155 49.7176 98.7155 42.7474 95.5095 37.7576ZM63.0039 52.0813C67.4389 56.5179 67.4389 63.7369 63.0039 68.1719C61.4892 69.6866 60.6536 71.7007 60.6536 73.8391C60.6536 75.9776 61.4892 77.9917 63.0039 79.5064C63.6612 80.1637 63.6612 81.2263 63.0039 81.8836C62.6761 82.2131 62.2457 82.3779 61.8153 82.3779C61.3849 82.3779 60.9545 82.2131 60.6267 81.8853C58.4765 79.7351 57.2912 76.877 57.2912 73.8408C57.2912 70.8046 58.4765 67.9466 60.6267 65.7964C63.7503 62.6711 63.7503 57.5855 60.6267 54.4602C59.9694 53.8028 59.9694 52.7403 60.6267 52.083C61.284 51.4256 62.3482 51.4256 63.0039 52.0813ZM83.0705 39.4069C82.4081 39.5212 81.7491 39.58 81.0984 39.58C75.6783 39.58 70.8651 35.6847 69.8951 30.1671C69.5235 28.0572 68.3551 26.218 66.6033 24.9891C64.8498 23.7618 62.7248 23.2844 60.6133 23.6609C59.697 23.8122 58.8262 23.2087 58.6664 22.2941C58.5051 21.3796 59.117 20.507 60.0316 20.3473C63.0291 19.8245 66.0468 20.4936 68.5333 22.237C71.0198 23.9804 72.6791 26.5912 73.2053 29.5854C73.9686 33.938 78.1362 36.8633 82.4871 36.0933C83.4067 35.9336 84.2742 36.5455 84.4339 37.4601C84.597 38.3746 83.985 39.2472 83.0705 39.4069Z" fill="#F25C3A"/>
</svg>
