<svg width="100" height="100" viewBox="0 0 100 100" fill="none" xmlns="http://www.w3.org/2000/svg">
<g clip-path="url(#clip0_62_444)">
<path d="M98.2493 4.30151C97.2689 3.56375 95.9993 3.32876 94.8206 3.66751C90.2956 4.96679 84.5285 4.59982 77.2272 4.13595C72.6556 3.84527 67.4745 3.51568 61.5236 3.51568C56.8605 3.51568 52.6704 5.57181 49.8048 8.82193C46.9392 5.57181 42.7499 3.51568 38.086 3.51568C32.1359 3.51568 26.954 3.84527 22.3824 4.13595C15.0811 4.60058 9.31403 4.96756 4.78903 3.66751C3.61029 3.32876 2.34075 3.56375 1.36114 4.30151C0.38076 5.04004 -0.19526 6.19513 -0.19526 7.42194V72.2261C-0.205941 76.407 1.41454 80.34 4.36712 83.3002C7.3197 86.2604 11.2488 87.8908 15.4298 87.8908H43.7501C45.9077 87.8908 47.6564 86.1421 47.6564 83.9845C47.6564 81.827 45.9077 80.0783 43.7501 80.0783H15.4298C13.3393 80.0783 11.3747 79.2635 9.89844 77.7834C8.42215 76.3033 7.61191 74.3364 7.61725 72.236V70.1639C9.91752 71.4975 12.5848 72.2658 15.4298 72.2658H44.5314C45.3996 72.2658 45.9939 72.8052 46.261 73.3095C46.9621 74.6332 48.3156 75.3885 49.7163 75.3885C50.3328 75.3885 50.9584 75.2428 51.5405 74.9338C52.717 74.3112 53.4425 73.1729 53.5898 71.9453C53.6661 71.6409 53.7111 71.3243 53.7111 70.9962V19.1407C53.7111 14.8331 57.2153 11.3282 61.5236 11.3282C67.2258 11.3282 72.2757 11.6494 76.7313 11.9324C82.5579 12.3032 87.4994 12.6176 91.9924 12.13V40.2345C91.9924 42.3921 93.741 44.1407 95.8986 44.1407C98.0562 44.1407 99.8049 42.3921 99.8049 40.2345V7.42194C99.8049 6.19513 99.2289 5.04004 98.2493 4.30151ZM15.4298 64.4533C11.1222 64.4533 7.61725 60.9483 7.61725 56.6408V12.13C12.1102 12.6176 17.051 12.3032 22.8776 11.9324C27.3339 11.6494 32.3838 11.3282 38.086 11.3282C42.3936 11.3282 45.8986 14.8331 45.8986 19.1407V64.5494C45.4499 64.4861 44.9937 64.4533 44.5314 64.4533H15.4298ZM39.2579 25.586C39.2579 27.7436 37.5093 29.4923 35.3517 29.4923H18.3595C16.2019 29.4923 14.4532 27.7436 14.4532 25.586C14.4532 23.4284 16.2019 21.6798 18.3595 21.6798H35.3517C37.5093 21.6798 39.2579 23.4284 39.2579 25.586ZM33.3985 41.211C33.3985 43.3686 31.6499 45.1173 29.4923 45.1173H18.3595C16.2019 45.1173 14.4532 43.3686 14.4532 41.211C14.4532 39.0535 16.2019 37.3048 18.3595 37.3048H29.4923C31.6499 37.3048 33.3985 39.0535 33.3985 41.211ZM79.8029 53.2342L58.3574 74.6324C57.9019 75.0871 57.5654 75.6471 57.3785 76.2628L52.7078 91.6384C52.2943 93.0017 52.6552 94.4826 53.6493 95.5019C54.3947 96.2656 55.4071 96.6806 56.4462 96.6806C56.7934 96.6806 57.1443 96.6341 57.4884 96.538L73.2553 92.1709C73.9038 91.9908 74.4951 91.6468 74.9719 91.1707L96.3732 69.8106C100.942 65.2414 100.942 57.8065 96.3732 53.2373C91.8039 48.668 84.3691 48.668 79.8029 53.2342ZM70.1791 84.9153L62.2476 87.1126L64.5685 79.471L79.0392 65.0323L84.5644 70.5576L70.1791 84.9153ZM90.851 64.2831L90.0942 65.0384L84.5697 59.514L85.3243 58.7617C86.8471 57.2381 89.3251 57.2381 90.848 58.7617C92.3716 60.2846 92.3716 62.7626 90.851 64.2831Z" fill="#F25C3A"/>
</g>
<defs>
<clipPath id="clip0_62_444">
<rect width="100" height="100" fill="white"/>
</clipPath>
</defs>
</svg>
