<svg width="100" height="100" viewBox="0 0 100 100" fill="none" xmlns="http://www.w3.org/2000/svg">
<path d="M53.864 19.0806C48.1263 19.0806 43.1777 19.607 38.9838 20.8474C20.0763 25.7081 0 50.8087 0 50.8087C0 50.8087 25.6454 80.9193 46.138 80.9193C51.8747 80.9193 56.8243 80.3917 61.0173 79.1505C79.9248 74.2896 100 49.1921 100 49.1921C100 49.1921 74.3567 19.0806 53.864 19.0806ZM48.842 71.0763C37.8346 71.0763 28.9138 62.1544 28.9138 51.1481C28.9138 40.1396 37.8346 31.2188 48.842 31.2188C59.8494 31.2188 68.7713 40.1396 68.7713 51.1481C68.7713 62.1544 59.8494 71.0763 48.842 71.0763Z" fill="#F25C3A"/>
<path d="M49.377 41.7192C49.7024 42.3257 49.9046 43.0079 49.9046 43.7453C49.9046 46.1293 47.9693 48.0624 45.5864 48.0624C43.7116 48.0624 42.1299 46.8579 41.5341 45.1886C40.2108 46.8135 39.3848 48.8623 39.3848 51.1221C39.3848 56.3443 43.6187 60.5803 48.8418 60.5803C54.065 60.5803 58.2989 56.3465 58.2989 51.1221C58.2989 46.0808 54.3441 42.0046 49.377 41.7192Z" fill="#F25C3A"/>
</svg>
