<svg width="1405" height="344" viewBox="0 0 1405 344" fill="none" xmlns="http://www.w3.org/2000/svg">
<path fill-rule="evenodd" clip-rule="evenodd" d="M159.062 318.184C159.706 321.669 160.092 323.864 158.031 325.413C153.524 318.055 151.592 308.761 150.433 296.499C149.145 297.402 147.857 298.306 146.569 299.21C146.44 298.435 146.44 297.661 146.311 296.886C148.114 288.883 145.925 279.977 142.834 272.877C141.675 275.33 141.16 277.782 139.357 279.719C136.909 273.006 134.462 266.423 132.015 259.711C129.826 251.45 130.599 240.866 131.243 234.283C133.69 209.758 122.227 186.265 112.825 173.874C112.568 173.874 112.439 173.874 112.181 173.874C111.924 175.294 111.666 176.713 111.409 178.133C111.022 178.133 110.636 178.262 110.249 178.262C104.84 153.221 78.4374 158.771 74.3161 119.531C75.0888 119.273 75.8616 119.015 76.6344 118.757C82.1725 119.919 82.4301 118.111 85.7787 115.53C85.9075 118.499 86.0363 120.693 87.5818 121.855C94.6654 126.114 101.878 130.374 108.961 134.634C102.908 124.824 96.7261 114.885 90.6728 105.075C88.7409 105.849 86.9378 106.623 85.0059 107.398C85.0059 107.14 85.0059 107.011 85.0059 106.753C86.6803 100.815 84.2332 96.8134 85.7787 90.1013C87.3242 83.3892 90.6728 74.87 93.635 68.0288C94.9229 67.5125 96.3397 66.9961 97.6276 66.4798C114.886 75.3863 130.856 100.04 149.918 105.204C166.017 109.592 185.593 103.009 199.503 109.85C209.806 114.885 214.958 132.568 223.587 137.732C231.186 139.41 238.913 140.958 246.512 142.637C257.331 145.993 265.831 153.608 275.748 157.481C275.877 158.255 275.877 159.03 276.006 159.804C268.665 167.678 259.392 174.261 244.452 175.939C252.823 186.523 263.255 204.207 275.62 209.629C275.491 210.274 275.362 210.79 275.233 211.436C272.915 211.823 270.597 212.339 268.278 212.726C268.665 212.726 269.051 212.597 269.437 212.597C277.165 219.31 285.021 226.151 292.749 232.863C292.749 233.121 292.749 233.25 292.749 233.508C290.817 233.508 288.756 233.508 286.824 233.508C288.499 239.059 293.264 242.931 298.029 244.867C297.643 245.513 297.385 246.158 296.999 246.803C295.454 247.32 293.908 247.836 292.491 248.481C299.446 251.063 311.939 256.484 318.636 262.035C334.735 235.573 344.009 204.465 343.88 171.163C343.365 76.0317 265.96 -0.641351 171.04 0.00404474C75.8616 0.133124 -0.512581 77.7097 0.00259099 172.841C0.517763 266.553 75.7329 342.322 168.721 344C166.403 335.223 165.373 320.766 159.062 318.184Z" fill="#F25C3A"/>
<path fill-rule="evenodd" clip-rule="evenodd" d="M639.254 108.114C603.563 108.114 574.671 137.017 574.671 172.72C574.671 208.423 603.563 237.325 639.254 237.325C674.945 237.325 703.837 208.423 703.837 172.72C703.837 137.017 674.945 108.114 639.254 108.114ZM639.254 213.523C616.593 213.523 598.465 195.199 598.465 172.72C598.465 150.24 616.782 131.916 639.254 131.916C661.915 131.916 680.044 150.24 680.044 172.72C680.044 195.199 661.726 213.523 639.254 213.523ZM548.989 109.248L519.152 194.066L490.448 108.114H477.041L446.637 194.066L418.878 109.248H393.007L437.195 236.759H454.38L483.272 154.774L510.843 236.759H528.027L574.86 109.248H548.989ZM747.082 109.248H722.721V233.925H785.605V212.957H747.082V109.248ZM882.858 130.216L886.446 109.248H802.412V233.925H826.772V178.954H873.227L876.815 157.985H826.772V130.216H882.858Z" fill="#F25C3A"/>
<path fill-rule="evenodd" clip-rule="evenodd" d="M1196.14 122.849C1182.36 112.648 1167.25 110.759 1149.88 110.759H1036.38L1039.97 132.294H1141.76V131.727H1149.31C1157.62 131.727 1169.89 132.483 1179.9 140.039C1189.72 147.595 1195.2 160.252 1195.2 173.287C1195.2 186.51 1189.53 199.355 1179.71 206.345C1168.95 214.279 1155.35 214.657 1149.31 214.657H1141.76V214.279H1053.57L1057.16 235.625H1149.69C1167.06 235.625 1180.66 233.925 1195.39 223.724C1211.82 212.201 1220.5 194.255 1220.5 173.476C1220.13 152.507 1211.25 134.372 1196.14 122.849ZM1141.19 159.685H1044.5L1048.09 181.221H1141.38V159.685H1141.19ZM1241.28 235.436H1265.64V110.759H1241.28V235.436ZM1352.5 108.114H1334.19L1280.18 235.436H1306.61L1317.57 209.179H1367.8L1378.75 235.436H1405L1352.5 108.114ZM1325.31 189.533L1343.25 144.573L1360.81 189.533H1325.31ZM995.784 108.492L960.471 190.099L926.668 108.492H909.862L886.634 235.436H911.372L924.025 158.552L956.694 237.137H963.492L997.672 158.552L1008.81 235.436H1033.55L1012.59 108.492H995.784Z" fill="#2F1634"/>
</svg>
