<svg width="24" height="24" viewBox="0 0 24 24" fill="none" xmlns="http://www.w3.org/2000/svg">
<g clip-path="url(#clip0_5927_518)">
<path d="M21.8569 21.4286C22.3963 21.4286 22.8638 21.2504 23.2612 20.8987L16.4616 14.0989C16.2985 14.2157 16.1403 14.3293 15.991 14.4373C15.4821 14.8122 15.0691 15.1048 14.752 15.3144C14.4349 15.5245 14.013 15.7387 13.4864 15.9573C12.9594 16.1762 12.4685 16.2853 12.0131 16.2853H11.9997H11.9864C11.5309 16.2853 11.04 16.1763 10.5131 15.9573C9.98612 15.7387 9.56425 15.5245 9.24747 15.3144C8.93038 15.1048 8.51761 14.8123 8.0085 14.4373C7.86663 14.3333 7.70928 14.2192 7.53917 14.097L0.738281 20.8987C1.13563 21.2504 1.60339 21.4286 2.14283 21.4286H21.8569Z" fill="white"/>
<path d="M1.35282 9.81706C0.844017 9.47784 0.392814 9.08934 0 8.65173V18.9971L5.99313 13.004C4.79416 12.167 3.24935 11.1059 1.35282 9.81706Z" fill="white"/>
<path d="M22.6608 9.81706C20.8366 11.0518 19.2861 12.1147 18.0093 13.0064L24.0001 18.9974V8.65173C23.6159 9.08054 23.1696 9.46878 22.6608 9.81706Z" fill="white"/>
<path d="M21.8572 2.57141H2.14321C1.45545 2.57141 0.926684 2.80366 0.556267 3.26767C0.185544 3.7319 0.000488281 4.31247 0.000488281 5.00873C0.000488281 5.57113 0.246068 6.18051 0.737009 6.83703C1.22795 7.49329 1.75035 8.00876 2.30395 8.38371C2.60744 8.59813 3.52266 9.23439 5.0496 10.2923C5.87388 10.8635 6.5907 11.3613 7.2067 11.791C7.73176 12.1568 8.18457 12.4736 8.55843 12.7366C8.60135 12.7667 8.66885 12.8149 8.75843 12.879C8.85495 12.9483 8.97708 13.0363 9.12776 13.1451C9.41792 13.355 9.65896 13.5246 9.85095 13.6542C10.0427 13.7838 10.275 13.9286 10.5475 14.0894C10.8198 14.2499 11.0766 14.3707 11.3176 14.451C11.5587 14.5313 11.7819 14.5715 11.9872 14.5715H12.0006H12.0139C12.2192 14.5715 12.4424 14.5313 12.6835 14.451C12.9245 14.3707 13.1811 14.2502 13.4536 14.0894C13.7259 13.9286 13.9579 13.7835 14.1502 13.6542C14.3422 13.5246 14.5832 13.355 14.8734 13.1451C15.0238 13.0363 15.1459 12.9483 15.2425 12.8792C15.3321 12.8149 15.3995 12.7669 15.4427 12.7366C15.734 12.5339 16.1878 12.2184 16.798 11.7947C17.9084 11.0232 19.5436 9.88773 21.7106 8.38371C22.3623 7.9285 22.9068 7.37917 23.3444 6.7365C23.7812 6.09384 24.0002 5.41972 24.0002 4.71435C24.0002 4.12502 23.7879 3.62075 23.3641 3.20074C22.9399 2.78126 22.4376 2.57141 21.8572 2.57141Z" fill="white"/>
</g>
<defs>
<clipPath id="clip0_5927_518">
<rect width="24" height="24" fill="white"/>
</clipPath>
</defs>
</svg>
