<svg width="94" height="94" viewBox="0 0 94 94" fill="none" xmlns="http://www.w3.org/2000/svg">
<g clip-path="url(#clip0_63_183)">
<path d="M92.0633 24.4351C90.9797 20.4083 87.8048 17.2341 83.7786 16.1498C76.4227 14.1367 46.9991 14.1367 46.9991 14.1367C46.9991 14.1367 17.5762 14.1367 10.2202 16.0731C6.27157 17.1567 3.01924 20.409 1.93562 24.4351C0 31.7903 0 47.0443 0 47.0443C0 47.0443 0 62.3751 1.93562 69.6535C3.01996 73.6797 6.19411 76.8545 10.221 77.9389C17.6536 79.9519 46.9998 79.9519 46.9998 79.9519C46.9998 79.9519 76.4227 79.9519 83.7786 78.0156C87.8055 76.932 90.9797 73.7571 92.064 69.731C93.9996 62.3751 93.9996 47.1218 93.9996 47.1218C93.9996 47.1218 94.0771 31.7903 92.0633 24.4351Z" fill="white"/>
<path d="M37.6309 61.1367L62.0983 47.0444L37.6309 32.9521V61.1367Z" fill="#F25C3A"/>
</g>
<defs>
<clipPath id="clip0_63_183">
<rect width="94" height="94" fill="white"/>
</clipPath>
</defs>
</svg>
